<svg id="monsteraBg" viewBox="0 0 1440 2880" preserveAspectRatio="xMidYMid slice" xmlns="http://www.w3.org/2000/svg" aria-hidden="true">
<defs>
  <filter id="wash" x="-30%" y="-30%" width="160%" height="160%"><feTurbulence type="fractalNoise" baseFrequency="0.018" numOctaves="4" seed="2" result="noise"/><feDisplacementMap in="SourceGraphic" in2="noise" scale="22" xChannelSelector="R" yChannelSelector="G"/></filter>
  <filter id="washSoft" x="-20%" y="-20%" width="140%" height="140%"><feTurbulence type="fractalNoise" baseFrequency="0.025" numOctaves="3" seed="7" result="noise"/><feDisplacementMap in="SourceGraphic" in2="noise" scale="14" xChannelSelector="R" yChannelSelector="G"/></filter>
  <filter id="blur3"><feGaussianBlur stdDeviation="3"/></filter>
  <filter id="blur6"><feGaussianBlur stdDeviation="6"/></filter>
  <filter id="blur1"><feGaussianBlur stdDeviation="1.2"/></filter>
  <radialGradient id="pool1" cx="50%" cy="50%" r="50%"><stop offset="0%" stop-color="#9ab488" stop-opacity="0.65"/><stop offset="70%" stop-color="#b8c9a0" stop-opacity="0.30"/><stop offset="100%" stop-color="#eef1e6" stop-opacity="0"/></radialGradient>
  <radialGradient id="pool2" cx="50%" cy="50%" r="50%"><stop offset="0%" stop-color="#7a9a6e" stop-opacity="0.55"/><stop offset="65%" stop-color="#a3b689" stop-opacity="0.25"/><stop offset="100%" stop-color="#eef1e6" stop-opacity="0"/></radialGradient>
  <radialGradient id="pool3" cx="50%" cy="50%" r="50%"><stop offset="0%" stop-color="#5c724b" stop-opacity="0.30"/><stop offset="60%" stop-color="#b8c9a0" stop-opacity="0.12"/><stop offset="100%" stop-color="#eef1e6" stop-opacity="0"/></radialGradient>
  <radialGradient id="poolWarm" cx="50%" cy="50%" r="50%"><stop offset="0%" stop-color="#c7b793" stop-opacity="0.50"/><stop offset="70%" stop-color="#ddd8c4" stop-opacity="0.20"/><stop offset="100%" stop-color="#faf9f7" stop-opacity="0"/></radialGradient>
</defs>
<rect width="1440" height="2880" fill="#f5f4d5"/>
<ellipse cx="200" cy="320" rx="380" ry="300" fill="url(#poolWarm)" filter="url(#blur6)"/><ellipse cx="1250" cy="700" rx="340" ry="260" fill="url(#pool1)" filter="url(#blur6)"/><ellipse cx="180" cy="1150" rx="360" ry="280" fill="url(#pool2)" filter="url(#blur6)"/><ellipse cx="1300" cy="1600" rx="400" ry="320" fill="url(#pool3)" filter="url(#blur6)"/><ellipse cx="720" cy="2100" rx="380" ry="300" fill="url(#pool1)" filter="url(#blur6)"/><ellipse cx="250" cy="2500" rx="350" ry="270" fill="url(#poolWarm)" filter="url(#blur6)"/><ellipse cx="1200" cy="2650" rx="360" ry="280" fill="url(#pool2)" filter="url(#blur6)"/>
<g filter="url(#wash)" opacity="0.95"><g transform="translate(60,80) rotate(-12)"><ellipse cx="180" cy="220" rx="130" ry="200" fill="#b8c9a0" opacity="0.35" filter="url(#blur3)"/><path d="M180,20 C200,80 280,140 260,240 C240,340 200,380 180,400 C160,380 120,340 100,240 C80,140 160,80 180,20Z" fill="#b0c496" opacity="0.72"/><line x1="180" y1="25" x2="180" y2="395" stroke="#5c724b" stroke-width="2.2" opacity="0.6"/><line x1="180" y1="100" x2="115" y2="140" stroke="#5c724b" stroke-width="1.2" opacity="0.45"/><line x1="180" y1="160" x2="108" y2="210" stroke="#5c724b" stroke-width="1.1" opacity="0.42"/><line x1="180" y1="230" x2="105" y2="275" stroke="#5c724b" stroke-width="1" opacity="0.4"/><line x1="180" y1="290" x2="120" y2="335" stroke="#5c724b" stroke-width="1" opacity="0.38"/><line x1="180" y1="100" x2="248" y2="140" stroke="#5c724b" stroke-width="1.2" opacity="0.45"/><line x1="180" y1="160" x2="255" y2="205" stroke="#5c724b" stroke-width="1.1" opacity="0.42"/><line x1="180" y1="230" x2="252" y2="272" stroke="#5c724b" stroke-width="1" opacity="0.4"/><line x1="180" y1="290" x2="240" y2="330" stroke="#5c724b" stroke-width="1" opacity="0.38"/><ellipse cx="155" cy="200" rx="14" ry="22" fill="#f5f4d5" opacity="0.55"/><ellipse cx="205" cy="240" rx="11" ry="18" fill="#f5f4d5" opacity="0.5"/><ellipse cx="170" cy="270" rx="9" ry="15" fill="#f5f4d5" opacity="0.45"/><path d="M180,400 C178,440 165,470 155,500" fill="none" stroke="#4a5f3f" stroke-width="3" opacity="0.55"/></g><g transform="translate(320,50) rotate(18) scale(0.55)"><path d="M90,10 C105,50 145,90 135,160 C125,230 100,255 90,270 C80,255 55,230 45,160 C35,90 75,50 90,10Z" fill="#9ab488" opacity="0.6"/><line x1="90" y1="15" x2="90" y2="265" stroke="#5c724b" stroke-width="1.8" opacity="0.5"/><line x1="90" y1="80" x2="58" y2="110" stroke="#5c724b" stroke-width="0.9" opacity="0.4"/><line x1="90" y1="140" x2="55" y2="170" stroke="#5c724b" stroke-width="0.9" opacity="0.38"/><line x1="90" y1="80" x2="122" y2="108" stroke="#5c724b" stroke-width="0.9" opacity="0.4"/><line x1="90" y1="140" x2="125" y2="165" stroke="#5c724b" stroke-width="0.9" opacity="0.38"/><ellipse cx="82" cy="140" rx="7" ry="12" fill="#f5f4d5" opacity="0.45"/></g></g>
<g filter="url(#washSoft)" opacity="0.90"><g transform="translate(1300,480) rotate(22)"><ellipse cx="140" cy="190" rx="115" ry="175" fill="#bac89e" opacity="0.3" filter="url(#blur3)"/><path d="M140,15 C158,70 225,120 210,210 C195,300 158,345 140,365 C122,345 85,300 70,210 C55,120 122,70 140,15Z" fill="#a3b689" opacity="0.68"/><line x1="140" y1="20" x2="140" y2="360" stroke="#4a5f3f" stroke-width="2" opacity="0.55"/><line x1="140" y1="90" x2="90" y2="125" stroke="#4a5f3f" stroke-width="1" opacity="0.4"/><line x1="140" y1="155" x2="85" y2="195" stroke="#4a5f3f" stroke-width="1" opacity="0.38"/><line x1="140" y1="220" x2="92" y2="258" stroke="#4a5f3f" stroke-width="1" opacity="0.36"/><line x1="140" y1="90" x2="192" y2="122" stroke="#4a5f3f" stroke-width="1" opacity="0.4"/><line x1="140" y1="155" x2="198" y2="190" stroke="#4a5f3f" stroke-width="1" opacity="0.38"/><line x1="140" y1="220" x2="190" y2="255" stroke="#4a5f3f" stroke-width="1" opacity="0.36"/><ellipse cx="118" cy="175" rx="12" ry="20" fill="#f5f4d5" opacity="0.5"/><ellipse cx="162" cy="215" rx="10" ry="16" fill="#f5f4d5" opacity="0.45"/><ellipse cx="130" cy="245" rx="8" ry="13" fill="#f5f4d5" opacity="0.4"/><path d="M140,365 C138,395 130,420 124,445" fill="none" stroke="#4a5f3f" stroke-width="2.8" opacity="0.5"/></g><g transform="translate(1440,560) rotate(-8) scale(0.45)"><path d="M80,8 C95,45 128,78 120,140 C112,202 88,224 80,238 C72,224 48,202 40,140 C32,78 65,45 80,8Z" fill="#8daa7e" opacity="0.55"/><line x1="80" y1="12" x2="80" y2="232" stroke="#4a5f3f" stroke-width="1.6" opacity="0.45"/><line x1="80" y1="70" x2="54" y2="95" stroke="#4a5f3f" stroke-width="0.8" opacity="0.38"/><line x1="80" y1="120" x2="52" y2="148" stroke="#4a5f3f" stroke-width="0.8" opacity="0.36"/><line x1="80" y1="70" x2="108" y2="93" stroke="#4a5f3f" stroke-width="0.8" opacity="0.38"/><ellipse cx="74" cy="120" rx="6" ry="10" fill="#f5f4d5" opacity="0.42"/></g></g>
<g filter="url(#wash)" opacity="0.78"><g transform="translate(-40,1020) rotate(8)"><ellipse cx="160" cy="180" rx="120" ry="170" fill="#bcc99f" opacity="0.28" filter="url(#blur3)"/><path d="M160,18 C180,75 240,130 222,220 C204,310 172,350 160,370 C148,350 116,310 98,220 C80,130 140,75 160,18Z" fill="#a8bf90" opacity="0.65"/><line x1="160" y1="22" x2="160" y2="365" stroke="#5c724b" stroke-width="2.1" opacity="0.52"/><line x1="160" y1="95" x2="108" y2="132" stroke="#5c724b" stroke-width="1.1" opacity="0.4"/><line x1="160" y1="165" x2="102" y2="205" stroke="#5c724b" stroke-width="1" opacity="0.38"/><line x1="160" y1="240" x2="110" y2="280" stroke="#5c724b" stroke-width="1" opacity="0.36"/><line x1="160" y1="95" x2="215" y2="130" stroke="#5c724b" stroke-width="1.1" opacity="0.4"/><line x1="160" y1="165" x2="220" y2="200" stroke="#5c724b" stroke-width="1" opacity="0.38"/><line x1="160" y1="240" x2="212" y2="278" stroke="#5c724b" stroke-width="1" opacity="0.36"/><ellipse cx="138" cy="180" rx="13" ry="21" fill="#f5f4d5" opacity="0.48"/><ellipse cx="183" cy="225" rx="10" ry="17" fill="#f5f4d5" opacity="0.43"/><path d="M160,370 C157,408 148,435 140,465" fill="none" stroke="#4a5f3f" stroke-width="2.6" opacity="0.48"/></g><g transform="translate(190,1180) rotate(25) scale(0.38)"><path d="M65,6 C78,38 105,65 98,115 C91,165 72,182 65,195 C58,182 39,165 32,115 C25,65 52,38 65,6Z" fill="#8daa7e" opacity="0.5"/><line x1="65" y1="9" x2="65" y2="190" stroke="#4a5f3f" stroke-width="1.4" opacity="0.42"/><line x1="65" y1="55" x2="44" y2="75" stroke="#4a5f3f" stroke-width="0.7" opacity="0.36"/><line x1="65" y1="55" x2="88" y2="73" stroke="#4a5f3f" stroke-width="0.7" opacity="0.36"/></g></g>
<g filter="url(#washSoft)" opacity="0.75"><g transform="translate(1380,1480) rotate(-18)"><ellipse cx="130" cy="170" rx="108" ry="155" fill="#bac89e" opacity="0.25" filter="url(#blur3)"/><path d="M130,14 C147,65 205,112 190,195 C175,278 148,318 130,338 C112,318 85,278 70,195 C55,112 113,65 130,14Z" fill="#9ab488" opacity="0.63"/><line x1="130" y1="18" x2="130" y2="333" stroke="#4a5f3f" stroke-width="1.9" opacity="0.5"/><line x1="130" y1="85" x2="86" y2="118" stroke="#4a5f3f" stroke-width="1" opacity="0.38"/><line x1="130" y1="148" x2="80" y2="185" stroke="#4a5f3f" stroke-width="1" opacity="0.36"/><line x1="130" y1="215" x2="88" y2="250" stroke="#4a5f3f" stroke-width="0.9" opacity="0.34"/><line x1="130" y1="85" x2="177" y2="116" stroke="#4a5f3f" stroke-width="1" opacity="0.38"/><line x1="130" y1="148" x2="182" y2="182" stroke="#4a5f3f" stroke-width="1" opacity="0.36"/><line x1="130" y1="215" x2="175" y2="248" stroke="#4a5f3f" stroke-width="0.9" opacity="0.34"/><ellipse cx="112" cy="160" rx="11" ry="18" fill="#f5f4d5" opacity="0.46"/><ellipse cx="150" cy="200" rx="9" ry="15" fill="#f5f4d5" opacity="0.42"/><path d="M130,338 C128,370 120,398 114,425" fill="none" stroke="#4a5f3f" stroke-width="2.5" opacity="0.46"/></g></g>
<g filter="url(#wash)" opacity="0.72"><g transform="translate(480,1900) rotate(5)"><ellipse cx="190" cy="240" rx="155" ry="230" fill="#b8c9a0" opacity="0.3" filter="url(#blur3)"/><path d="M190,20 C215,90 310,165 288,280 C266,395 222,445 190,475 C158,445 114,395 92,280 C70,165 165,90 190,20Z" fill="#adc194" opacity="0.67"/><line x1="190" y1="25" x2="190" y2="470" stroke="#4a5f3f" stroke-width="2.4" opacity="0.55"/><line x1="190" y1="110" x2="122" y2="158" stroke="#4a5f3f" stroke-width="1.2" opacity="0.4"/><line x1="190" y1="185" x2="112" y2="238" stroke="#4a5f3f" stroke-width="1.1" opacity="0.38"/><line x1="190" y1="265" x2="118" y2="315" stroke="#4a5f3f" stroke-width="1" opacity="0.36"/><line x1="190" y1="340" x2="138" y2="385" stroke="#4a5f3f" stroke-width="1" opacity="0.34"/><line x1="190" y1="110" x2="260" y2="155" stroke="#4a5f3f" stroke-width="1.2" opacity="0.4"/><line x1="190" y1="185" x2="268" y2="232" stroke="#4a5f3f" stroke-width="1.1" opacity="0.38"/><line x1="190" y1="265" x2="262" y2="312" stroke="#4a5f3f" stroke-width="1" opacity="0.36"/><line x1="190" y1="340" x2="245" y2="382" stroke="#4a5f3f" stroke-width="1" opacity="0.34"/><ellipse cx="162" cy="210" rx="18" ry="30" fill="#f5f4d5" opacity="0.5"/><ellipse cx="220" cy="260" rx="15" ry="24" fill="#f5f4d5" opacity="0.45"/><ellipse cx="175" cy="310" rx="13" ry="20" fill="#f5f4d5" opacity="0.42"/><ellipse cx="208" cy="350" rx="11" ry="17" fill="#f5f4d5" opacity="0.38"/><path d="M190,475 C187,520 176,555 168,585" fill="none" stroke="#4a5f3f" stroke-width="3" opacity="0.5"/></g><g transform="translate(740,2020) rotate(-14) scale(0.5)"><path d="M75,8 C90,48 122,82 114,148 C106,214 84,236 75,250 C66,236 44,214 36,148 C28,82 60,48 75,8Z" fill="#90ac80" opacity="0.52"/><line x1="75" y1="12" x2="75" y2="244" stroke="#4a5f3f" stroke-width="1.5" opacity="0.44"/><line x1="75" y1="65" x2="50" y2="88" stroke="#4a5f3f" stroke-width="0.8" opacity="0.36"/><line x1="75" y1="120" x2="48" y2="148" stroke="#4a5f3f" stroke-width="0.8" opacity="0.34"/><line x1="75" y1="65" x2="102" y2="86" stroke="#4a5f3f" stroke-width="0.8" opacity="0.36"/><ellipse cx="68" cy="118" rx="7" ry="12" fill="#f5f4d5" opacity="0.4"/></g></g>
<g filter="url(#washSoft)" opacity="0.7"><g transform="translate(30,2480) rotate(10)"><ellipse cx="145" cy="175" rx="115" ry="160" fill="#bcc99f" opacity="0.25" filter="url(#blur3)"/><path d="M145,16 C162,68 218,118 203,200 C188,282 158,320 145,340 C132,320 102,282 87,200 C72,118 128,68 145,16Z" fill="#a3b689" opacity="0.62"/><line x1="145" y1="20" x2="145" y2="335" stroke="#5c724b" stroke-width="2" opacity="0.5"/><line x1="145" y1="88" x2="98" y2="120" stroke="#5c724b" stroke-width="1" opacity="0.38"/><line x1="145" y1="155" x2="94" y2="192" stroke="#5c724b" stroke-width="1" opacity="0.36"/><line x1="145" y1="88" x2="194" y2="118" stroke="#5c724b" stroke-width="1" opacity="0.38"/><line x1="145" y1="155" x2="197" y2="189" stroke="#5c724b" stroke-width="1" opacity="0.36"/><ellipse cx="126" cy="168" rx="11" ry="18" fill="#f5f4d5" opacity="0.44"/><ellipse cx="165" cy="210" rx="9" ry="14" fill="#f5f4d5" opacity="0.4"/><path d="M145,340 C142,374 134,402 128,428" fill="none" stroke="#4a5f3f" stroke-width="2.4" opacity="0.45"/></g></g>
<g filter="url(#wash)" opacity="0.68"><g transform="translate(1380,2600) rotate(-6)"><ellipse cx="120" cy="150" rx="100" ry="140" fill="#bac89e" opacity="0.22" filter="url(#blur3)"/><path d="M120,12 C135,55 185,100 172,175 C159,250 134,286 120,304 C106,286 81,250 68,175 C55,100 105,55 120,12Z" fill="#95af85" opacity="0.6"/><line x1="120" y1="16" x2="120" y2="298" stroke="#4a5f3f" stroke-width="1.8" opacity="0.48"/><line x1="120" y1="75" x2="82" y2="105" stroke="#4a5f3f" stroke-width="0.9" opacity="0.37"/><line x1="120" y1="140" x2="78" y2="172" stroke="#4a5f3f" stroke-width="0.9" opacity="0.35"/><line x1="120" y1="75" x2="160" y2="103" stroke="#4a5f3f" stroke-width="0.9" opacity="0.37"/><line x1="120" y1="140" x2="163" y2="170" stroke="#4a5f3f" stroke-width="0.9" opacity="0.35"/><ellipse cx="105" cy="152" rx="10" ry="16" fill="#f5f4d5" opacity="0.42"/><path d="M120,304 C118,335 112,360 107,382" fill="none" stroke="#4a5f3f" stroke-width="2.2" opacity="0.44"/></g></g>
<g opacity="0.18" filter="url(#blur1)"><path d="M0,600 Q60,580 40,700 Q20,750 0,780" fill="none" stroke="#a3b689" stroke-width="3"/><path d="M1440,1200 Q1380,1220 1400,1340 Q1420,1380 1440,1400" fill="none" stroke="#a3b689" stroke-width="2.5"/><path d="M0,2200 Q50,2180 30,2300 Q10,2350 0,2380" fill="none" stroke="#a3b689" stroke-width="2.8"/><path d="M1440,2400 Q1390,2420 1410,2520 Q1430,2550 1440,2580" fill="none" stroke="#a3b689" stroke-width="2.2"/></g>

<!-- Extra right-side leaves: outcomes + work zone -->
<g filter="url(#washSoft)" opacity="0.88"><g transform="translate(1420,900) rotate(-14)"><ellipse cx="150" cy="195" rx="120" ry="180" fill="#b8c9a0" opacity="0.32" filter="url(#blur3)"/><path d="M150,16 C170,75 235,132 218,225 C201,318 165,360 150,380 C135,360 99,318 82,225 C65,132 130,75 150,16Z" fill="#a3b689" opacity="0.70"/><line x1="150" y1="20" x2="150" y2="375" stroke="#4a5f3f" stroke-width="2.1" opacity="0.56"/><line x1="150" y1="95" x2="98" y2="130" stroke="#4a5f3f" stroke-width="1.1" opacity="0.42"/><line x1="150" y1="165" x2="92" y2="205" stroke="#4a5f3f" stroke-width="1" opacity="0.40"/><line x1="150" y1="240" x2="100" y2="278" stroke="#4a5f3f" stroke-width="1" opacity="0.37"/><line x1="150" y1="95" x2="204" y2="128" stroke="#4a5f3f" stroke-width="1.1" opacity="0.42"/><line x1="150" y1="165" x2="210" y2="200" stroke="#4a5f3f" stroke-width="1" opacity="0.40"/><line x1="150" y1="240" x2="202" y2="275" stroke="#4a5f3f" stroke-width="1" opacity="0.37"/><ellipse cx="128" cy="178" rx="13" ry="21" fill="#f5f4d5" opacity="0.50"/><ellipse cx="172" cy="220" rx="10" ry="17" fill="#f5f4d5" opacity="0.45"/><path d="M150,380 C148,415 138,445 130,472" fill="none" stroke="#4a5f3f" stroke-width="2.8" opacity="0.50"/></g><g transform="translate(1460,1100) rotate(10) scale(0.52)"><path d="M85,9 C100,50 138,88 128,158 C118,228 94,252 85,267 C76,252 52,228 42,158 C32,88 70,50 85,9Z" fill="#8daa7e" opacity="0.58"/><line x1="85" y1="13" x2="85" y2="261" stroke="#4a5f3f" stroke-width="1.7" opacity="0.47"/><line x1="85" y1="72" x2="57" y2="98" stroke="#4a5f3f" stroke-width="0.9" opacity="0.39"/><line x1="85" y1="130" x2="54" y2="158" stroke="#4a5f3f" stroke-width="0.9" opacity="0.37"/><line x1="85" y1="72" x2="115" y2="96" stroke="#4a5f3f" stroke-width="0.9" opacity="0.39"/><ellipse cx="78" cy="128" rx="7" ry="12" fill="#f5f4d5" opacity="0.44"/></g></g>

<!-- Extra right-side: work accordion zone -->
<g filter="url(#wash)" opacity="0.80"><g transform="translate(1420,1560) rotate(16)"><ellipse cx="135" cy="175" rx="110" ry="162" fill="#bcc99f" opacity="0.28" filter="url(#blur3)"/><path d="M135,15 C153,68 212,118 196,202 C180,286 152,325 135,344 C118,325 90,286 74,202 C58,118 117,68 135,15Z" fill="#9ab488" opacity="0.65"/><line x1="135" y1="19" x2="135" y2="339" stroke="#4a5f3f" stroke-width="1.9" opacity="0.52"/><line x1="135" y1="88" x2="90" y2="122" stroke="#4a5f3f" stroke-width="1" opacity="0.39"/><line x1="135" y1="155" x2="84" y2="192" stroke="#4a5f3f" stroke-width="1" opacity="0.37"/><line x1="135" y1="222" x2="92" y2="258" stroke="#4a5f3f" stroke-width="0.9" opacity="0.35"/><line x1="135" y1="88" x2="182" y2="120" stroke="#4a5f3f" stroke-width="1" opacity="0.39"/><line x1="135" y1="155" x2="188" y2="188" stroke="#4a5f3f" stroke-width="1" opacity="0.37"/><line x1="135" y1="222" x2="180" y2="255" stroke="#4a5f3f" stroke-width="0.9" opacity="0.35"/><ellipse cx="115" cy="165" rx="12" ry="19" fill="#f5f4d5" opacity="0.47"/><ellipse cx="156" cy="208" rx="9" ry="15" fill="#f5f4d5" opacity="0.43"/><path d="M135,344 C132,378 124,405 117,430" fill="none" stroke="#4a5f3f" stroke-width="2.5" opacity="0.47"/></g></g>

<!-- Left-side contact zone -->
<g filter="url(#washSoft)" opacity="0.82"><g transform="translate(-120,2180) rotate(6)"><ellipse cx="155" cy="200" rx="125" ry="185" fill="#b8c9a0" opacity="0.30" filter="url(#blur3)"/><path d="M155,18 C175,78 242,138 224,232 C206,326 170,368 155,388 C140,368 104,326 86,232 C68,138 135,78 155,18Z" fill="#a8bf90" opacity="0.67"/><line x1="155" y1="22" x2="155" y2="383" stroke="#5c724b" stroke-width="2.2" opacity="0.54"/><line x1="155" y1="100" x2="102" y2="138" stroke="#5c724b" stroke-width="1.2" opacity="0.42"/><line x1="155" y1="172" x2="96" y2="212" stroke="#5c724b" stroke-width="1.1" opacity="0.40"/><line x1="155" y1="248" x2="104" y2="288" stroke="#5c724b" stroke-width="1" opacity="0.37"/><line x1="155" y1="100" x2="210" y2="136" stroke="#5c724b" stroke-width="1.2" opacity="0.42"/><line x1="155" y1="172" x2="216" y2="208" stroke="#5c724b" stroke-width="1.1" opacity="0.40"/><line x1="155" y1="248" x2="208" y2="285" stroke="#5c724b" stroke-width="1" opacity="0.37"/><ellipse cx="132" cy="186" rx="14" ry="23" fill="#f5f4d5" opacity="0.50"/><ellipse cx="178" cy="230" rx="11" ry="18" fill="#f5f4d5" opacity="0.45"/><path d="M155,388 C152,425 142,455 134,482" fill="none" stroke="#4a5f3f" stroke-width="2.8" opacity="0.50"/></g><g transform="translate(-60,2340) rotate(-20) scale(0.46)"><path d="M72,7 C86,44 116,76 108,136 C100,196 79,217 72,230 C65,217 44,196 36,136 C28,76 58,44 72,7Z" fill="#8daa7e" opacity="0.54"/><line x1="72" y1="10" x2="72" y2="224" stroke="#4a5f3f" stroke-width="1.5" opacity="0.44"/><line x1="72" y1="62" x2="48" y2="85" stroke="#4a5f3f" stroke-width="0.8" opacity="0.37"/><line x1="72" y1="62" x2="97" y2="83" stroke="#4a5f3f" stroke-width="0.8" opacity="0.37"/></g></g>
</svg>